<svg width="653" height="206" viewBox="0 0 653 206" fill="none" xmlns="http://www.w3.org/2000/svg">
<rect width="653" height="206" rx="24" fill="#07122C"/>
<mask id="mask0" style="mask-type:alpha" maskUnits="userSpaceOnUse" x="0" y="0" width="653" height="206">
<rect width="653" height="206" rx="24" fill="#07122C"/>
</mask>
<g mask="url(#mask0)">
<g opacity="0.7">
<path fill-rule="evenodd" clip-rule="evenodd" d="M173 54C174.105 54 175 53.1046 175 52C175 50.8954 174.105 50 173 50C171.895 50 171 50.8954 171 52C171 53.1046 171.895 54 173 54ZM173 53.1795C173.651 53.1795 174.179 52.6514 174.179 52C174.179 51.3486 173.651 50.8205 173 50.8205C172.349 50.8205 171.821 51.3486 171.821 52C171.821 52.6514 172.349 53.1795 173 53.1795Z" fill="#1CE39D" fill-opacity="0.5"/>
<path fill-rule="evenodd" clip-rule="evenodd" d="M210.5 59C210.776 59 211 58.7761 211 58.5C211 58.2239 210.776 58 210.5 58C210.224 58 210 58.2239 210 58.5C210 58.7761 210.224 59 210.5 59ZM210.5 58.7949C210.663 58.7949 210.795 58.6629 210.795 58.5C210.795 58.3371 210.663 58.2051 210.5 58.2051C210.337 58.2051 210.205 58.3371 210.205 58.5C210.205 58.6629 210.337 58.7949 210.5 58.7949Z" fill="#1CE39D" fill-opacity="0.5"/>
<path opacity="0.37" fill-rule="evenodd" clip-rule="evenodd" d="M92 19C93.1046 19 94 18.1046 94 17C94 15.8954 93.1046 15 92 15C90.8954 15 90 15.8954 90 17C90 18.1046 90.8954 19 92 19ZM92 18.1795C92.6514 18.1795 93.1795 17.6514 93.1795 17C93.1795 16.3486 92.6514 15.8205 92 15.8205C91.3486 15.8205 90.8205 16.3486 90.8205 17C90.8205 17.6514 91.3486 18.1795 92 18.1795Z" fill="#1CE39D" fill-opacity="0.5"/>
<path opacity="0.29" fill-rule="evenodd" clip-rule="evenodd" d="M528.849 23.5354C529.78 24.1294 531.017 23.8559 531.61 22.9246C532.204 21.9933 531.931 20.7568 531 20.1629C530.068 19.569 528.832 19.8425 528.238 20.7738C527.644 21.7051 527.917 22.9415 528.849 23.5354ZM529.29 22.8436C529.839 23.1939 530.568 23.0326 530.919 22.4834C531.269 21.9342 531.108 21.205 530.558 20.8547C530.009 20.5044 529.28 20.6657 528.93 21.215C528.579 21.7642 528.741 22.4934 529.29 22.8436Z" fill="#1CE39D" fill-opacity="0.5"/>
<path fill-rule="evenodd" clip-rule="evenodd" d="M81 164C82.1046 164 83 163.105 83 162C83 160.895 82.1046 160 81 160C79.8954 160 79 160.895 79 162C79 163.105 79.8954 164 81 164ZM81 163.179C81.6514 163.179 82.1795 162.651 82.1795 162C82.1795 161.349 81.6514 160.821 81 160.821C80.3486 160.821 79.8205 161.349 79.8205 162C79.8205 162.651 80.3486 163.179 81 163.179Z" fill="#1CE39D" fill-opacity="0.5"/>
<path fill-rule="evenodd" clip-rule="evenodd" d="M118.5 169C118.776 169 119 168.776 119 168.5C119 168.224 118.776 168 118.5 168C118.224 168 118 168.224 118 168.5C118 168.776 118.224 169 118.5 169ZM118.5 168.795C118.663 168.795 118.795 168.663 118.795 168.5C118.795 168.337 118.663 168.205 118.5 168.205C118.337 168.205 118.205 168.337 118.205 168.5C118.205 168.663 118.337 168.795 118.5 168.795Z" fill="#1CE39D" fill-opacity="0.5"/>
<path fill-rule="evenodd" clip-rule="evenodd" d="M545.508 93.7467C545.753 94.2416 546.353 94.444 546.848 94.1988C547.342 93.9535 547.545 93.3536 547.3 92.8587C547.054 92.3639 546.454 92.1615 545.96 92.4067C545.465 92.6519 545.262 93.2519 545.508 93.7467ZM545.875 93.5646C546.02 93.8564 546.374 93.9758 546.665 93.8312C546.957 93.6865 547.077 93.3327 546.932 93.0409C546.787 92.749 546.434 92.6297 546.142 92.7743C545.85 92.9189 545.731 93.2727 545.875 93.5646Z" fill="#1CE39D" fill-opacity="0.5"/>
<path fill-rule="evenodd" clip-rule="evenodd" d="M495 39C496.105 39 497 38.1046 497 37C497 35.8954 496.105 35 495 35C493.895 35 493 35.8954 493 37C493 38.1046 493.895 39 495 39ZM495 38.1795C495.651 38.1795 496.179 37.6514 496.179 37C496.179 36.3486 495.651 35.8205 495 35.8205C494.349 35.8205 493.821 36.3486 493.821 37C493.821 37.6514 494.349 38.1795 495 38.1795Z" fill="#1CE39D"/>
<path fill-rule="evenodd" clip-rule="evenodd" d="M547 41C548.657 41 550 39.6569 550 38C550 36.3431 548.657 35 547 35C545.343 35 544 36.3431 544 38C544 39.6569 545.343 41 547 41ZM547 39.7692C547.977 39.7692 548.769 38.9771 548.769 38C548.769 37.0229 547.977 36.2308 547 36.2308C546.023 36.2308 545.231 37.0229 545.231 38C545.231 38.9771 546.023 39.7692 547 39.7692Z" fill="#1CE39D" fill-opacity="0.32"/>
<path fill-rule="evenodd" clip-rule="evenodd" d="M583.5 44C583.776 44 584 43.7761 584 43.5C584 43.2239 583.776 43 583.5 43C583.224 43 583 43.2239 583 43.5C583 43.7761 583.224 44 583.5 44ZM583.5 43.7949C583.663 43.7949 583.795 43.6629 583.795 43.5C583.795 43.3371 583.663 43.2051 583.5 43.2051C583.337 43.2051 583.205 43.3371 583.205 43.5C583.205 43.6629 583.337 43.7949 583.5 43.7949Z" fill="#1CE39D" fill-opacity="0.32"/>
<path opacity="0.37" fill-rule="evenodd" clip-rule="evenodd" d="M349 72C350.105 72 351 71.1046 351 70C351 68.8954 350.105 68 349 68C347.895 68 347 68.8954 347 70C347 71.1046 347.895 72 349 72ZM349 71.1795C349.651 71.1795 350.179 70.6514 350.179 70C350.179 69.3486 349.651 68.8205 349 68.8205C348.349 68.8205 347.821 69.3486 347.821 70C347.821 70.6514 348.349 71.1795 349 71.1795Z" fill="#1CE39D" fill-opacity="0.5"/>
<path fill-rule="evenodd" clip-rule="evenodd" d="M430 107C431.105 107 432 106.105 432 105C432 103.895 431.105 103 430 103C428.895 103 428 103.895 428 105C428 106.105 428.895 107 430 107ZM430 106.179C430.651 106.179 431.179 105.651 431.179 105C431.179 104.349 430.651 103.821 430 103.821C429.349 103.821 428.821 104.349 428.821 105C428.821 105.651 429.349 106.179 430 106.179Z" fill="#1CE39D" fill-opacity="0.5"/>
<path fill-rule="evenodd" clip-rule="evenodd" d="M467.5 112C467.776 112 468 111.776 468 111.5C468 111.224 467.776 111 467.5 111C467.224 111 467 111.224 467 111.5C467 111.776 467.224 112 467.5 112ZM467.5 111.795C467.663 111.795 467.795 111.663 467.795 111.5C467.795 111.337 467.663 111.205 467.5 111.205C467.337 111.205 467.205 111.337 467.205 111.5C467.205 111.663 467.337 111.795 467.5 111.795Z" fill="#1CE39D" fill-opacity="0.5"/>
<path opacity="0.37" fill-rule="evenodd" clip-rule="evenodd" d="M262 150C263.105 150 264 149.105 264 148C264 146.895 263.105 146 262 146C260.895 146 260 146.895 260 148C260 149.105 260.895 150 262 150ZM262 149.179C262.651 149.179 263.179 148.651 263.179 148C263.179 147.349 262.651 146.821 262 146.821C261.349 146.821 260.821 147.349 260.821 148C260.821 148.651 261.349 149.179 262 149.179Z" fill="#1CE39D"/>
<path opacity="0.37" fill-rule="evenodd" clip-rule="evenodd" d="M299.5 155C299.776 155 300 154.776 300 154.5C300 154.224 299.776 154 299.5 154C299.224 154 299 154.224 299 154.5C299 154.776 299.224 155 299.5 155ZM299.5 154.795C299.663 154.795 299.795 154.663 299.795 154.5C299.795 154.337 299.663 154.205 299.5 154.205C299.337 154.205 299.205 154.337 299.205 154.5C299.205 154.663 299.337 154.795 299.5 154.795Z" fill="#1CE39D"/>
<path fill-rule="evenodd" clip-rule="evenodd" d="M506 152C507.105 152 508 151.105 508 150C508 148.895 507.105 148 506 148C504.895 148 504 148.895 504 150C504 151.105 504.895 152 506 152ZM506 151.179C506.651 151.179 507.179 150.651 507.179 150C507.179 149.349 506.651 148.821 506 148.821C505.349 148.821 504.821 149.349 504.821 150C504.821 150.651 505.349 151.179 506 151.179Z" fill="#1CE39D"/>
<path fill-rule="evenodd" clip-rule="evenodd" d="M543.5 157C543.776 157 544 156.776 544 156.5C544 156.224 543.776 156 543.5 156C543.224 156 543 156.224 543 156.5C543 156.776 543.224 157 543.5 157ZM543.5 156.795C543.663 156.795 543.795 156.663 543.795 156.5C543.795 156.337 543.663 156.205 543.5 156.205C543.337 156.205 543.205 156.337 543.205 156.5C543.205 156.663 543.337 156.795 543.5 156.795Z" fill="#1CE39D"/>
<path opacity="0.37" fill-rule="evenodd" clip-rule="evenodd" d="M232 79C233.105 79 234 78.1046 234 77C234 75.8954 233.105 75 232 75C230.895 75 230 75.8954 230 77C230 78.1046 230.895 79 232 79ZM232 78.1795C232.651 78.1795 233.179 77.6514 233.179 77C233.179 76.3486 232.651 75.8205 232 75.8205C231.349 75.8205 230.821 76.3486 230.821 77C230.821 77.6514 231.349 78.1795 232 78.1795Z" fill="#1CE39D" fill-opacity="0.5"/>
<path opacity="0.37" fill-rule="evenodd" clip-rule="evenodd" d="M269.5 84C269.776 84 270 83.7761 270 83.5C270 83.2239 269.776 83 269.5 83C269.224 83 269 83.2239 269 83.5C269 83.7761 269.224 84 269.5 84ZM269.5 83.7949C269.663 83.7949 269.795 83.6629 269.795 83.5C269.795 83.3371 269.663 83.2051 269.5 83.2051C269.337 83.2051 269.205 83.3371 269.205 83.5C269.205 83.6629 269.337 83.7949 269.5 83.7949Z" fill="#1CE39D" fill-opacity="0.5"/>
<path fill-rule="evenodd" clip-rule="evenodd" d="M343 185C344.105 185 345 184.105 345 183C345 181.895 344.105 181 343 181C341.895 181 341 181.895 341 183C341 184.105 341.895 185 343 185ZM343 184.179C343.651 184.179 344.179 183.651 344.179 183C344.179 182.349 343.651 181.821 343 181.821C342.349 181.821 341.821 182.349 341.821 183C341.821 183.651 342.349 184.179 343 184.179Z" fill="#1CE39D"/>
<path fill-rule="evenodd" clip-rule="evenodd" d="M380.5 190C380.776 190 381 189.776 381 189.5C381 189.224 380.776 189 380.5 189C380.224 189 380 189.224 380 189.5C380 189.776 380.224 190 380.5 190ZM380.5 189.795C380.663 189.795 380.795 189.663 380.795 189.5C380.795 189.337 380.663 189.205 380.5 189.205C380.337 189.205 380.205 189.337 380.205 189.5C380.205 189.663 380.337 189.795 380.5 189.795Z" fill="#1CE39D"/>
<path opacity="0.37" fill-rule="evenodd" clip-rule="evenodd" d="M112 126C113.105 126 114 125.105 114 124C114 122.895 113.105 122 112 122C110.895 122 110 122.895 110 124C110 125.105 110.895 126 112 126ZM112 125.179C112.651 125.179 113.179 124.651 113.179 124C113.179 123.349 112.651 122.821 112 122.821C111.349 122.821 110.821 123.349 110.821 124C110.821 124.651 111.349 125.179 112 125.179Z" fill="#1CE39D"/>
<path opacity="0.37" fill-rule="evenodd" clip-rule="evenodd" d="M377.513 124.175C377.758 124.67 378.358 124.873 378.853 124.627C379.348 124.382 379.55 123.782 379.305 123.287C379.06 122.792 378.46 122.59 377.965 122.835C377.47 123.081 377.268 123.68 377.513 124.175ZM377.88 123.993C378.025 124.285 378.379 124.404 378.671 124.26C378.962 124.115 379.082 123.761 378.937 123.47C378.793 123.178 378.439 123.058 378.147 123.203C377.855 123.348 377.736 123.701 377.88 123.993Z" fill="#1CE39D"/>
<path fill-rule="evenodd" clip-rule="evenodd" d="M313 114C314.105 114 315 113.105 315 112C315 110.895 314.105 110 313 110C311.895 110 311 110.895 311 112C311 113.105 311.895 114 313 114ZM313 113.179C313.651 113.179 314.179 112.651 314.179 112C314.179 111.349 313.651 110.821 313 110.821C312.349 110.821 311.821 111.349 311.821 112C311.821 112.651 312.349 113.179 313 113.179Z" fill="#1CE39D" fill-opacity="0.5"/>
<path fill-rule="evenodd" clip-rule="evenodd" d="M350.5 119C350.776 119 351 118.776 351 118.5C351 118.224 350.776 118 350.5 118C350.224 118 350 118.224 350 118.5C350 118.776 350.224 119 350.5 119ZM350.5 118.795C350.663 118.795 350.795 118.663 350.795 118.5C350.795 118.337 350.663 118.205 350.5 118.205C350.337 118.205 350.205 118.337 350.205 118.5C350.205 118.663 350.337 118.795 350.5 118.795Z" fill="#1CE39D" fill-opacity="0.5"/>
<path opacity="0.37" fill-rule="evenodd" clip-rule="evenodd" d="M20 15C21.1046 15 22 14.1046 22 13C22 11.8954 21.1046 11 20 11C18.8954 11 18 11.8954 18 13C18 14.1046 18.8954 15 20 15ZM20 14.1795C20.6514 14.1795 21.1795 13.6514 21.1795 13C21.1795 12.3486 20.6514 11.8205 20 11.8205C19.3486 11.8205 18.8205 12.3486 18.8205 13C18.8205 13.6514 19.3486 14.1795 20 14.1795Z" fill="#1CE39D"/>
<path opacity="0.37" fill-rule="evenodd" clip-rule="evenodd" d="M57.5 20C57.7761 20 58 19.7761 58 19.5C58 19.2239 57.7761 19 57.5 19C57.2239 19 57 19.2239 57 19.5C57 19.7761 57.2239 20 57.5 20ZM57.5 19.7949C57.6629 19.7949 57.7949 19.6629 57.7949 19.5C57.7949 19.3371 57.6629 19.2051 57.5 19.2051C57.3371 19.2051 57.2051 19.3371 57.2051 19.5C57.2051 19.6629 57.3371 19.7949 57.5 19.7949Z" fill="#1CE39D"/>
<path opacity="0.29" fill-rule="evenodd" clip-rule="evenodd" d="M614.625 149.402C615.556 149.996 616.792 149.723 617.386 148.792C617.98 147.86 617.707 146.624 616.775 146.03C615.844 145.436 614.608 145.709 614.014 146.641C613.42 147.572 613.693 148.809 614.625 149.402ZM615.066 148.711C615.615 149.061 616.344 148.9 616.695 148.35C617.045 147.801 616.884 147.072 616.334 146.722C615.785 146.371 615.056 146.533 614.706 147.082C614.355 147.631 614.517 148.36 615.066 148.711Z" fill="#1CE39D" fill-opacity="0.5"/>
<path fill-rule="evenodd" clip-rule="evenodd" d="M193 161C194.105 161 195 160.105 195 159C195 157.895 194.105 157 193 157C191.895 157 191 157.895 191 159C191 160.105 191.895 161 193 161ZM193 160.179C193.651 160.179 194.179 159.651 194.179 159C194.179 158.349 193.651 157.821 193 157.821C192.349 157.821 191.821 158.349 191.821 159C191.821 159.651 192.349 160.179 193 160.179Z" fill="#1CE39D"/>
<path fill-rule="evenodd" clip-rule="evenodd" d="M230.5 166C230.776 166 231 165.776 231 165.5C231 165.224 230.776 165 230.5 165C230.224 165 230 165.224 230 165.5C230 165.776 230.224 166 230.5 166ZM230.5 165.795C230.663 165.795 230.795 165.663 230.795 165.5C230.795 165.337 230.663 165.205 230.5 165.205C230.337 165.205 230.205 165.337 230.205 165.5C230.205 165.663 230.337 165.795 230.5 165.795Z" fill="#1CE39D"/>
<path opacity="0.29" fill-rule="evenodd" clip-rule="evenodd" d="M488.177 124.505C489.108 125.099 490.344 124.825 490.938 123.894C491.532 122.962 491.259 121.726 490.327 121.132C489.396 120.538 488.16 120.812 487.566 121.743C486.972 122.674 487.245 123.911 488.177 124.505ZM488.618 123.813C489.167 124.163 489.896 124.002 490.246 123.453C490.597 122.903 490.435 122.174 489.886 121.824C489.337 121.474 488.608 121.635 488.258 122.184C487.907 122.733 488.069 123.463 488.618 123.813Z" fill="#1CE39D"/>
<path opacity="0.37" fill-rule="evenodd" clip-rule="evenodd" d="M216.576 69.489C217.096 69.6752 217.669 69.4047 217.855 68.8848C218.041 68.3649 217.771 67.7924 217.251 67.6061C216.731 67.4199 216.158 67.6904 215.972 68.2103C215.786 68.7303 216.056 69.3027 216.576 69.489ZM216.715 69.1028C217.021 69.2126 217.359 69.0531 217.469 68.7464C217.579 68.4398 217.419 68.1022 217.112 67.9924C216.806 67.8825 216.468 68.0421 216.358 68.3487C216.248 68.6553 216.408 68.9929 216.715 69.1028Z" fill="#1CE39D"/>
<path fill-rule="evenodd" clip-rule="evenodd" d="M458.513 159.175C458.758 159.67 459.358 159.873 459.853 159.627C460.348 159.382 460.55 158.782 460.305 158.287C460.06 157.792 459.46 157.59 458.965 157.835C458.47 158.081 458.268 158.68 458.513 159.175ZM458.88 158.993C459.025 159.285 459.379 159.404 459.671 159.26C459.962 159.115 460.082 158.761 459.937 158.47C459.793 158.178 459.439 158.058 459.147 158.203C458.855 158.348 458.736 158.701 458.88 158.993Z" fill="#1CE39D"/>
<path opacity="0.37" fill-rule="evenodd" clip-rule="evenodd" d="M18 119C19.1046 119 20 118.105 20 117C20 115.895 19.1046 115 18 115C16.8954 115 16 115.895 16 117C16 118.105 16.8954 119 18 119ZM18 118.179C18.6514 118.179 19.1795 117.651 19.1795 117C19.1795 116.349 18.6514 115.821 18 115.821C17.3486 115.821 16.8205 116.349 16.8205 117C16.8205 117.651 17.3486 118.179 18 118.179Z" fill="#1CE39D" fill-opacity="0.5"/>
<path opacity="0.37" fill-rule="evenodd" clip-rule="evenodd" d="M209.733 121.211C210.253 121.397 210.826 121.127 211.012 120.607C211.198 120.087 210.928 119.514 210.408 119.328C209.888 119.142 209.315 119.412 209.129 119.932C208.943 120.452 209.213 121.025 209.733 121.211ZM209.872 120.825C210.178 120.935 210.516 120.775 210.626 120.469C210.736 120.162 210.576 119.824 210.269 119.714C209.963 119.605 209.625 119.764 209.515 120.071C209.405 120.377 209.565 120.715 209.872 120.825Z" fill="#1CE39D" fill-opacity="0.5"/>
<path fill-rule="evenodd" clip-rule="evenodd" d="M101 50C102.105 50 103 49.1046 103 48C103 46.8954 102.105 46 101 46C99.8954 46 99 46.8954 99 48C99 49.1046 99.8954 50 101 50ZM101 49.1795C101.651 49.1795 102.179 48.6514 102.179 48C102.179 47.3486 101.651 46.8205 101 46.8205C100.349 46.8205 99.8205 47.3486 99.8205 48C99.8205 48.6514 100.349 49.1795 101 49.1795Z" fill="#1CE39D"/>
<path fill-rule="evenodd" clip-rule="evenodd" d="M138.5 55C138.776 55 139 54.7761 139 54.5C139 54.2239 138.776 54 138.5 54C138.224 54 138 54.2239 138 54.5C138 54.7761 138.224 55 138.5 55ZM138.5 54.7949C138.663 54.7949 138.795 54.6629 138.795 54.5C138.795 54.3371 138.663 54.2051 138.5 54.2051C138.337 54.2051 138.205 54.3371 138.205 54.5C138.205 54.6629 138.337 54.7949 138.5 54.7949Z" fill="#1CE39D"/>
<path fill-rule="evenodd" clip-rule="evenodd" d="M75 36C79.4183 36 83 32.4183 83 28C83 23.5817 79.4183 20 75 20C70.5817 20 67 23.5817 67 28C67 32.4183 70.5817 36 75 36ZM75 32.718C77.6057 32.718 79.718 30.6057 79.718 28C79.718 25.3944 77.6057 23.2821 75 23.2821C72.3944 23.2821 70.2821 25.3944 70.2821 28C70.2821 30.6057 72.3944 32.718 75 32.718Z" fill="#1CE39D" fill-opacity="0.25"/>
<path opacity="0.37" fill-rule="evenodd" clip-rule="evenodd" d="M145.941 73.9289C146.461 74.1152 147.034 73.8447 147.22 73.3247C147.406 72.8048 147.136 72.2323 146.616 72.0461C146.096 71.8598 145.523 72.1304 145.337 72.6503C145.151 73.1702 145.421 73.7427 145.941 73.9289ZM146.08 73.5427C146.386 73.6526 146.724 73.493 146.834 73.1864C146.944 72.8798 146.784 72.5422 146.478 72.4323C146.171 72.3225 145.833 72.482 145.723 72.7886C145.614 73.0953 145.773 73.4329 146.08 73.5427Z" fill="#1CE39D"/>
<path fill-rule="evenodd" clip-rule="evenodd" d="M611 193C616.523 193 621 188.523 621 183C621 177.477 616.523 173 611 173C605.477 173 601 177.477 601 183C601 188.523 605.477 193 611 193ZM611 188.897C614.257 188.897 616.897 186.257 616.897 183C616.897 179.743 614.257 177.103 611 177.103C607.743 177.103 605.103 179.743 605.103 183C605.103 186.257 607.743 188.897 611 188.897Z" fill="#1CE39D" fill-opacity="0.15"/>
<path fill-rule="evenodd" clip-rule="evenodd" d="M297.576 104.489C298.096 104.675 298.669 104.405 298.855 103.885C299.041 103.365 298.771 102.792 298.251 102.606C297.731 102.42 297.158 102.69 296.972 103.21C296.786 103.73 297.056 104.303 297.576 104.489ZM297.715 104.103C298.021 104.213 298.359 104.053 298.469 103.746C298.579 103.44 298.419 103.102 298.112 102.992C297.806 102.883 297.468 103.042 297.358 103.349C297.248 103.655 297.408 103.993 297.715 104.103Z" fill="#1CE39D"/>
<path opacity="0.29" fill-rule="evenodd" clip-rule="evenodd" d="M606.735 133.09C607.073 133.527 607.701 133.606 608.138 133.268C608.574 132.93 608.654 132.302 608.316 131.865C607.977 131.429 607.349 131.349 606.913 131.687C606.476 132.025 606.396 132.653 606.735 133.09ZM607.059 132.839C607.258 133.096 607.629 133.143 607.886 132.944C608.144 132.744 608.191 132.374 607.991 132.116C607.792 131.859 607.421 131.812 607.164 132.011C606.906 132.211 606.859 132.581 607.059 132.839Z" fill="#1CE39D"/>
<path fill-rule="evenodd" clip-rule="evenodd" d="M99 154C100.105 154 101 153.105 101 152C101 150.895 100.105 150 99 150C97.8954 150 97 150.895 97 152C97 153.105 97.8954 154 99 154ZM99 153.179C99.6514 153.179 100.179 152.651 100.179 152C100.179 151.349 99.6514 150.821 99 150.821C98.3486 150.821 97.8205 151.349 97.8205 152C97.8205 152.651 98.3486 153.179 99 153.179Z" fill="#1CE39D" fill-opacity="0.5"/>
<path fill-rule="evenodd" clip-rule="evenodd" d="M136.5 159C136.776 159 137 158.776 137 158.5C137 158.224 136.776 158 136.5 158C136.224 158 136 158.224 136 158.5C136 158.776 136.224 159 136.5 159ZM136.5 158.795C136.663 158.795 136.795 158.663 136.795 158.5C136.795 158.337 136.663 158.205 136.5 158.205C136.337 158.205 136.205 158.337 136.205 158.5C136.205 158.663 136.337 158.795 136.5 158.795Z" fill="#1CE39D" fill-opacity="0.5"/>
<path opacity="0.29" fill-rule="evenodd" clip-rule="evenodd" d="M412.686 68.0581C413.618 68.6521 414.854 68.3786 415.448 67.4473C416.042 66.516 415.768 65.2796 414.837 64.6856C413.906 64.0917 412.669 64.3652 412.075 65.2965C411.481 66.2278 411.755 67.4642 412.686 68.0581ZM413.127 67.3663C413.677 67.7166 414.406 67.5553 414.756 67.0061C415.106 66.4569 414.945 65.7277 414.396 65.3774C413.847 65.0271 413.117 65.1884 412.767 65.7377C412.417 66.2869 412.578 67.0161 413.127 67.3663Z" fill="#1CE39D" fill-opacity="0.5"/>
<path opacity="0.29" fill-rule="evenodd" clip-rule="evenodd" d="M452.035 72.7222C452.267 72.8707 452.577 72.8023 452.725 72.5695C452.874 72.3366 452.805 72.0275 452.572 71.8791C452.34 71.7306 452.03 71.7989 451.882 72.0318C451.733 72.2646 451.802 72.5737 452.035 72.7222ZM452.145 72.5492C452.282 72.6368 452.465 72.5965 452.552 72.4592C452.64 72.3219 452.599 72.1396 452.462 72.052C452.325 71.9644 452.142 72.0048 452.055 72.1421C451.967 72.2794 452.008 72.4617 452.145 72.5492Z" fill="#1CE39D" fill-opacity="0.5"/>
<path opacity="0.37" fill-rule="evenodd" clip-rule="evenodd" d="M245 26C246.105 26 247 25.1046 247 24C247 22.8954 246.105 22 245 22C243.895 22 243 22.8954 243 24C243 25.1046 243.895 26 245 26ZM245 25.1795C245.651 25.1795 246.179 24.6514 246.179 24C246.179 23.3486 245.651 22.8205 245 22.8205C244.349 22.8205 243.821 23.3486 243.821 24C243.821 24.6514 244.349 25.1795 245 25.1795Z" fill="#1CE39D"/>
<path opacity="0.37" fill-rule="evenodd" clip-rule="evenodd" d="M282.5 31C282.776 31 283 30.7761 283 30.5C283 30.2239 282.776 30 282.5 30C282.224 30 282 30.2239 282 30.5C282 30.7761 282.224 31 282.5 31ZM282.5 30.7949C282.663 30.7949 282.795 30.6629 282.795 30.5C282.795 30.3371 282.663 30.2051 282.5 30.2051C282.337 30.2051 282.205 30.3371 282.205 30.5C282.205 30.6629 282.337 30.7949 282.5 30.7949Z" fill="#1CE39D"/>
<path fill-rule="evenodd" clip-rule="evenodd" d="M290.733 156.211C291.253 156.397 291.826 156.127 292.012 155.607C292.198 155.087 291.928 154.514 291.408 154.328C290.888 154.142 290.315 154.412 290.129 154.932C289.943 155.452 290.213 156.025 290.733 156.211ZM290.872 155.825C291.178 155.935 291.516 155.775 291.626 155.468C291.736 155.162 291.576 154.824 291.269 154.714C290.963 154.605 290.625 154.764 290.515 155.071C290.405 155.377 290.565 155.715 290.872 155.825Z" fill="#1CE39D" fill-opacity="0.5"/>
<path opacity="0.29" fill-rule="evenodd" clip-rule="evenodd" d="M573.154 173.019C573.492 173.456 574.12 173.535 574.557 173.197C574.993 172.859 575.073 172.231 574.735 171.794C574.397 171.357 573.768 171.278 573.332 171.616C572.895 171.954 572.815 172.582 573.154 173.019ZM573.478 172.768C573.677 173.025 574.048 173.072 574.305 172.873C574.563 172.673 574.61 172.303 574.41 172.045C574.211 171.788 573.841 171.741 573.583 171.94C573.326 172.14 573.279 172.51 573.478 172.768Z" fill="#1CE39D" fill-opacity="0.5"/>
<path fill-rule="evenodd" clip-rule="evenodd" d="M160.941 193.22C161.461 193.406 162.034 193.136 162.22 192.616C162.406 192.096 162.136 191.523 161.616 191.337C161.096 191.151 160.523 191.421 160.337 191.941C160.151 192.461 160.422 193.034 160.941 193.22ZM161.08 192.834C161.386 192.944 161.724 192.784 161.834 192.478C161.944 192.171 161.784 191.833 161.478 191.723C161.171 191.614 160.833 191.773 160.723 192.08C160.614 192.386 160.773 192.724 161.08 192.834Z" fill="#1CE39D" fill-opacity="0.5"/>
<path fill-rule="evenodd" clip-rule="evenodd" d="M23 131C24.1046 131 25 130.105 25 129C25 127.895 24.1046 127 23 127C21.8954 127 21 127.895 21 129C21 130.105 21.8954 131 23 131ZM23 130.179C23.6514 130.179 24.1795 129.651 24.1795 129C24.1795 128.349 23.6514 127.821 23 127.821C22.3486 127.821 21.8205 128.349 21.8205 129C21.8205 129.651 22.3486 130.179 23 130.179Z" fill="#1CE39D"/>
<path fill-rule="evenodd" clip-rule="evenodd" d="M60.5 136C60.7761 136 61 135.776 61 135.5C61 135.224 60.7761 135 60.5 135C60.2239 135 60 135.224 60 135.5C60 135.776 60.2239 136 60.5 136ZM60.5 135.795C60.6629 135.795 60.7949 135.663 60.7949 135.5C60.7949 135.337 60.6629 135.205 60.5 135.205C60.3371 135.205 60.2051 135.337 60.2051 135.5C60.2051 135.663 60.3371 135.795 60.5 135.795Z" fill="#1CE39D"/>
<path fill-rule="evenodd" clip-rule="evenodd" d="M226.941 108.929C227.461 109.115 228.034 108.845 228.22 108.325C228.406 107.805 228.136 107.232 227.616 107.046C227.096 106.86 226.523 107.13 226.337 107.65C226.151 108.17 226.421 108.743 226.941 108.929ZM227.08 108.543C227.386 108.653 227.724 108.493 227.834 108.186C227.944 107.88 227.784 107.542 227.478 107.432C227.171 107.322 226.833 107.482 226.723 107.789C226.614 108.095 226.773 108.433 227.08 108.543Z" fill="#1CE39D"/>
<path opacity="0.29" fill-rule="evenodd" clip-rule="evenodd" d="M544.793 98.8525C545.131 99.2891 545.759 99.3688 546.196 99.0306C546.632 98.6924 546.712 98.0642 546.374 97.6276C546.036 97.191 545.407 97.1113 544.971 97.4495C544.534 97.7877 544.454 98.4159 544.793 98.8525ZM545.117 98.6012C545.316 98.8587 545.687 98.9057 545.944 98.7063C546.202 98.5068 546.249 98.1364 546.049 97.8789C545.85 97.6214 545.48 97.5744 545.222 97.7738C544.965 97.9733 544.918 98.3437 545.117 98.6012Z" fill="#1CE39D"/>
<path fill-rule="evenodd" clip-rule="evenodd" d="M29 24C30.1046 24 31 23.1046 31 22C31 20.8954 30.1046 20 29 20C27.8954 20 27 20.8954 27 22C27 23.1046 27.8954 24 29 24ZM29 23.1795C29.6514 23.1795 30.1795 22.6514 30.1795 22C30.1795 21.3486 29.6514 20.8205 29 20.8205C28.3486 20.8205 27.8205 21.3486 27.8205 22C27.8205 22.6514 28.3486 23.1795 29 23.1795Z" fill="#1CE39D"/>
<path fill-rule="evenodd" clip-rule="evenodd" d="M268.673 10.2201C269.193 10.4063 269.766 10.1358 269.952 9.61588C270.138 9.09595 269.868 8.52348 269.348 8.33723C268.828 8.15098 268.256 8.42149 268.069 8.94142C267.883 9.46136 268.154 10.0338 268.673 10.2201ZM268.812 9.83385C269.118 9.94369 269.456 9.78416 269.566 9.47753C269.676 9.1709 269.516 8.83329 269.21 8.72345C268.903 8.61362 268.565 8.77315 268.455 9.07977C268.346 9.3864 268.505 9.72401 268.812 9.83385Z" fill="#1CE39D"/>
<path fill-rule="evenodd" clip-rule="evenodd" d="M418 22C419.105 22 420 21.1046 420 20C420 18.8954 419.105 18 418 18C416.895 18 416 18.8954 416 20C416 21.1046 416.895 22 418 22ZM418 21.1795C418.651 21.1795 419.179 20.6514 419.179 20C419.179 19.3486 418.651 18.8205 418 18.8205C417.349 18.8205 416.821 19.3486 416.821 20C416.821 20.6514 417.349 21.1795 418 21.1795Z" fill="#1CE39D"/>
<path fill-rule="evenodd" clip-rule="evenodd" d="M623 28C624.105 28 625 27.1046 625 26C625 24.8954 624.105 24 623 24C621.895 24 621 24.8954 621 26C621 27.1046 621.895 28 623 28ZM623 27.1795C623.651 27.1795 624.179 26.6514 624.179 26C624.179 25.3486 623.651 24.8205 623 24.8205C622.349 24.8205 621.821 25.3486 621.821 26C621.821 26.6514 622.349 27.1795 623 27.1795Z" fill="#1CE39D"/>
<path fill-rule="evenodd" clip-rule="evenodd" d="M326 61C327.105 61 328 60.1046 328 59C328 57.8954 327.105 57 326 57C324.895 57 324 57.8954 324 59C324 60.1046 324.895 61 326 61ZM326 60.1795C326.651 60.1795 327.179 59.6514 327.179 59C327.179 58.3486 326.651 57.8205 326 57.8205C325.349 57.8205 324.821 58.3486 324.821 59C324.821 59.6514 325.349 60.1795 326 60.1795Z" fill="#1CE39D"/>
<path fill-rule="evenodd" clip-rule="evenodd" d="M363.5 66C363.776 66 364 65.7761 364 65.5C364 65.2239 363.776 65 363.5 65C363.224 65 363 65.2239 363 65.5C363 65.7761 363.224 66 363.5 66ZM363.5 65.7949C363.663 65.7949 363.795 65.6629 363.795 65.5C363.795 65.3371 363.663 65.2051 363.5 65.2051C363.337 65.2051 363.205 65.3371 363.205 65.5C363.205 65.6629 363.337 65.7949 363.5 65.7949Z" fill="#1CE39D"/>
<path opacity="0.29" fill-rule="evenodd" clip-rule="evenodd" d="M654.084 111.707C655.015 112.301 656.252 112.027 656.846 111.096C657.44 110.165 657.166 108.928 656.235 108.334C655.303 107.74 654.067 108.014 653.473 108.945C652.879 109.876 653.153 111.113 654.084 111.707ZM654.525 111.015C655.074 111.365 655.804 111.204 656.154 110.655C656.504 110.105 656.343 109.376 655.794 109.026C655.244 108.676 654.515 108.837 654.165 109.386C653.815 109.935 653.976 110.665 654.525 111.015Z" fill="#1CE39D"/>
<path fill-rule="evenodd" clip-rule="evenodd" d="M619 163C620.105 163 621 162.105 621 161C621 159.895 620.105 159 619 159C617.895 159 617 159.895 617 161C617 162.105 617.895 163 619 163ZM619 162.179C619.651 162.179 620.179 161.651 620.179 161C620.179 160.349 619.651 159.821 619 159.821C618.349 159.821 617.821 160.349 617.821 161C617.821 161.651 618.349 162.179 619 162.179Z" fill="#1CE39D" fill-opacity="0.5"/>
</g>
</g>
<path d="M176.15 65.6V95H183.206V65.6H176.15ZM180.56 71.438H186.314C187.266 71.438 188.092 71.592 188.792 71.9C189.492 72.18 190.01 72.6 190.346 73.16C190.71 73.72 190.892 74.406 190.892 75.218C190.892 76.03 190.71 76.716 190.346 77.276C190.01 77.836 189.492 78.256 188.792 78.536C188.092 78.816 187.266 78.956 186.314 78.956H180.56V84.878H186.314C188.834 84.878 190.934 84.486 192.614 83.702C194.322 82.918 195.596 81.812 196.436 80.384C197.304 78.928 197.738 77.206 197.738 75.218C197.738 73.23 197.304 71.522 196.436 70.094C195.596 68.638 194.322 67.532 192.614 66.776C190.934 65.992 188.834 65.6 186.314 65.6H180.56V71.438ZM207.084 75.68H200.784V95H207.084V75.68ZM212.67 82.274L215.442 76.772C215.134 76.352 214.644 75.988 213.972 75.68C213.328 75.372 212.656 75.218 211.956 75.218C210.864 75.218 209.828 75.568 208.848 76.268C207.896 76.968 207.112 77.92 206.496 79.124C205.88 80.328 205.572 81.7 205.572 83.24L207.084 85.466C207.084 84.542 207.21 83.758 207.462 83.114C207.742 82.47 208.12 81.994 208.596 81.686C209.072 81.35 209.604 81.182 210.192 81.182C210.752 81.182 211.214 81.28 211.578 81.476C211.97 81.672 212.334 81.938 212.67 82.274ZM223.09 88.952C223.09 88.448 223.188 88.042 223.384 87.734C223.608 87.426 223.944 87.188 224.392 87.02C224.868 86.852 225.47 86.768 226.198 86.768C227.178 86.768 228.102 86.908 228.97 87.188C229.866 87.44 230.65 87.818 231.322 88.322V85.508C231.014 85.144 230.51 84.794 229.81 84.458C229.138 84.122 228.326 83.856 227.374 83.66C226.422 83.436 225.386 83.324 224.266 83.324C222.586 83.324 221.186 83.562 220.066 84.038C218.974 84.486 218.134 85.172 217.546 86.096C216.986 86.992 216.706 88.056 216.706 89.288C216.706 90.604 217.014 91.724 217.63 92.648C218.274 93.572 219.114 94.272 220.15 94.748C221.186 95.196 222.32 95.42 223.552 95.42C224.784 95.42 225.932 95.21 226.996 94.79C228.088 94.342 228.956 93.698 229.6 92.858C230.272 91.99 230.608 90.94 230.608 89.708L229.936 87.188C229.936 88.084 229.74 88.84 229.348 89.456C228.956 90.072 228.452 90.534 227.836 90.842C227.22 91.15 226.548 91.304 225.82 91.304C225.316 91.304 224.854 91.206 224.434 91.01C224.014 90.814 223.678 90.548 223.426 90.212C223.202 89.876 223.09 89.456 223.09 88.952ZM220.234 81.602C220.486 81.434 220.92 81.224 221.536 80.972C222.18 80.692 222.922 80.454 223.762 80.258C224.602 80.062 225.456 79.964 226.324 79.964C226.912 79.964 227.43 80.02 227.878 80.132C228.326 80.244 228.704 80.426 229.012 80.678C229.348 80.902 229.586 81.21 229.726 81.602C229.866 81.966 229.936 82.372 229.936 82.82V95H236.026V81.35C236.026 80.034 235.634 78.914 234.85 77.99C234.066 77.066 233.002 76.366 231.658 75.89C230.342 75.386 228.816 75.134 227.08 75.134C225.26 75.134 223.58 75.372 222.04 75.848C220.528 76.296 219.212 76.786 218.092 77.318L220.234 81.602ZM247.075 62.24H240.733V95H247.075V62.24ZM262.867 85.34C262.867 83.156 262.419 81.322 261.523 79.838C260.655 78.326 259.521 77.192 258.121 76.436C256.721 75.652 255.237 75.26 253.669 75.26C252.465 75.26 251.359 75.498 250.351 75.974C249.343 76.422 248.461 77.08 247.705 77.948C246.977 78.816 246.389 79.88 245.941 81.14C245.521 82.372 245.311 83.772 245.311 85.34C245.311 86.908 245.521 88.322 245.941 89.582C246.389 90.814 246.977 91.864 247.705 92.732C248.461 93.6 249.343 94.272 250.351 94.748C251.359 95.196 252.465 95.42 253.669 95.42C255.237 95.42 256.721 95.042 258.121 94.286C259.521 93.502 260.655 92.354 261.523 90.842C262.419 89.33 262.867 87.496 262.867 85.34ZM256.147 85.34C256.147 86.348 255.937 87.23 255.517 87.986C255.097 88.714 254.537 89.288 253.837 89.708C253.165 90.1 252.409 90.296 251.569 90.296C251.037 90.296 250.505 90.184 249.973 89.96C249.441 89.736 248.951 89.414 248.503 88.994C248.083 88.574 247.733 88.056 247.453 87.44C247.201 86.824 247.075 86.11 247.075 85.298C247.075 84.514 247.201 83.828 247.453 83.24C247.733 82.652 248.083 82.148 248.503 81.728C248.951 81.28 249.441 80.944 249.973 80.72C250.505 80.496 251.037 80.384 251.569 80.384C252.409 80.384 253.165 80.594 253.837 81.014C254.537 81.406 255.097 81.98 255.517 82.736C255.937 83.464 256.147 84.332 256.147 85.34ZM273.081 62.24H266.655V95H273.081V62.24ZM279.255 83.24V95H285.597V82.316C285.597 80.72 285.373 79.376 284.925 78.284C284.505 77.192 283.805 76.366 282.825 75.806C281.845 75.218 280.557 74.924 278.961 74.924C277.365 74.924 276.049 75.302 275.013 76.058C274.005 76.814 273.249 77.822 272.745 79.082C272.241 80.314 271.989 81.7 271.989 83.24H273.081C273.081 82.456 273.221 81.812 273.501 81.308C273.781 80.776 274.173 80.384 274.677 80.132C275.181 79.852 275.769 79.712 276.441 79.712C277.141 79.712 277.687 79.852 278.079 80.132C278.499 80.384 278.793 80.776 278.961 81.308C279.157 81.84 279.255 82.484 279.255 83.24ZM295.524 88.952C295.524 88.448 295.622 88.042 295.818 87.734C296.042 87.426 296.378 87.188 296.826 87.02C297.302 86.852 297.904 86.768 298.632 86.768C299.612 86.768 300.536 86.908 301.404 87.188C302.3 87.44 303.084 87.818 303.756 88.322V85.508C303.448 85.144 302.944 84.794 302.244 84.458C301.572 84.122 300.76 83.856 299.808 83.66C298.856 83.436 297.82 83.324 296.7 83.324C295.02 83.324 293.62 83.562 292.5 84.038C291.408 84.486 290.568 85.172 289.98 86.096C289.42 86.992 289.14 88.056 289.14 89.288C289.14 90.604 289.448 91.724 290.064 92.648C290.708 93.572 291.548 94.272 292.584 94.748C293.62 95.196 294.754 95.42 295.986 95.42C297.218 95.42 298.366 95.21 299.43 94.79C300.522 94.342 301.39 93.698 302.034 92.858C302.706 91.99 303.042 90.94 303.042 89.708L302.37 87.188C302.37 88.084 302.174 88.84 301.782 89.456C301.39 90.072 300.886 90.534 300.27 90.842C299.654 91.15 298.982 91.304 298.254 91.304C297.75 91.304 297.288 91.206 296.868 91.01C296.448 90.814 296.112 90.548 295.86 90.212C295.636 89.876 295.524 89.456 295.524 88.952ZM292.668 81.602C292.92 81.434 293.354 81.224 293.97 80.972C294.614 80.692 295.356 80.454 296.196 80.258C297.036 80.062 297.89 79.964 298.758 79.964C299.346 79.964 299.864 80.02 300.312 80.132C300.76 80.244 301.138 80.426 301.446 80.678C301.782 80.902 302.02 81.21 302.16 81.602C302.3 81.966 302.37 82.372 302.37 82.82V95H308.46V81.35C308.46 80.034 308.068 78.914 307.284 77.99C306.5 77.066 305.436 76.366 304.092 75.89C302.776 75.386 301.25 75.134 299.514 75.134C297.694 75.134 296.014 75.372 294.474 75.848C292.962 76.296 291.646 76.786 290.526 77.318L292.668 81.602ZM310.94 75.68V80.93H323.876V75.68H310.94ZM314.342 68.96V95H320.474V68.96H314.342ZM339.843 65.6V95H346.899V65.6H339.843ZM344.253 71.438H350.007C350.959 71.438 351.785 71.592 352.485 71.9C353.185 72.18 353.703 72.6 354.039 73.16C354.403 73.72 354.585 74.406 354.585 75.218C354.585 76.03 354.403 76.716 354.039 77.276C353.703 77.836 353.185 78.256 352.485 78.536C351.785 78.816 350.959 78.956 350.007 78.956H344.253V84.878H350.007C352.527 84.878 354.627 84.486 356.307 83.702C358.015 82.918 359.289 81.812 360.129 80.384C360.997 78.928 361.431 77.206 361.431 75.218C361.431 73.23 360.997 71.522 360.129 70.094C359.289 68.638 358.015 67.532 356.307 66.776C354.627 65.992 352.527 65.6 350.007 65.6H344.253V71.438ZM369.024 88.952C369.024 88.448 369.122 88.042 369.318 87.734C369.542 87.426 369.878 87.188 370.326 87.02C370.802 86.852 371.404 86.768 372.132 86.768C373.112 86.768 374.036 86.908 374.904 87.188C375.8 87.44 376.584 87.818 377.256 88.322V85.508C376.948 85.144 376.444 84.794 375.744 84.458C375.072 84.122 374.26 83.856 373.308 83.66C372.356 83.436 371.32 83.324 370.2 83.324C368.52 83.324 367.12 83.562 366 84.038C364.908 84.486 364.068 85.172 363.48 86.096C362.92 86.992 362.64 88.056 362.64 89.288C362.64 90.604 362.948 91.724 363.564 92.648C364.208 93.572 365.048 94.272 366.084 94.748C367.12 95.196 368.254 95.42 369.486 95.42C370.718 95.42 371.866 95.21 372.93 94.79C374.022 94.342 374.89 93.698 375.534 92.858C376.206 91.99 376.542 90.94 376.542 89.708L375.87 87.188C375.87 88.084 375.674 88.84 375.282 89.456C374.89 90.072 374.386 90.534 373.77 90.842C373.154 91.15 372.482 91.304 371.754 91.304C371.25 91.304 370.788 91.206 370.368 91.01C369.948 90.814 369.612 90.548 369.36 90.212C369.136 89.876 369.024 89.456 369.024 88.952ZM366.168 81.602C366.42 81.434 366.854 81.224 367.47 80.972C368.114 80.692 368.856 80.454 369.696 80.258C370.536 80.062 371.39 79.964 372.258 79.964C372.846 79.964 373.364 80.02 373.812 80.132C374.26 80.244 374.638 80.426 374.946 80.678C375.282 80.902 375.52 81.21 375.66 81.602C375.8 81.966 375.87 82.372 375.87 82.82V95H381.96V81.35C381.96 80.034 381.568 78.914 380.784 77.99C380 77.066 378.936 76.366 377.592 75.89C376.276 75.386 374.75 75.134 373.014 75.134C371.194 75.134 369.514 75.372 367.974 75.848C366.462 76.296 365.146 76.786 364.026 77.318L366.168 81.602ZM399.266 83.24V95H405.902V82.568C405.902 81.028 405.65 79.712 405.146 78.62C404.67 77.528 403.914 76.688 402.878 76.1C401.87 75.512 400.568 75.218 398.972 75.218C397.572 75.218 396.382 75.512 395.402 76.1C394.422 76.688 393.652 77.514 393.092 78.578V75.68H386.666V95H393.092V83.24C393.092 82.512 393.232 81.882 393.512 81.35C393.792 80.79 394.184 80.384 394.688 80.132C395.192 79.852 395.78 79.712 396.452 79.712C397.152 79.712 397.698 79.852 398.09 80.132C398.51 80.384 398.804 80.776 398.972 81.308C399.168 81.84 399.266 82.484 399.266 83.24ZM425.525 62.24V95H431.867V62.24H425.525ZM409.733 85.34C409.733 87.496 410.167 89.33 411.035 90.842C411.903 92.354 413.023 93.502 414.395 94.286C415.795 95.042 417.293 95.42 418.889 95.42C420.093 95.42 421.199 95.196 422.207 94.748C423.243 94.272 424.139 93.6 424.895 92.732C425.651 91.864 426.239 90.814 426.659 89.582C427.079 88.322 427.289 86.908 427.289 85.34C427.289 83.772 427.079 82.372 426.659 81.14C426.239 79.88 425.651 78.816 424.895 77.948C424.139 77.08 423.243 76.422 422.207 75.974C421.199 75.498 420.093 75.26 418.889 75.26C417.293 75.26 415.795 75.652 414.395 76.436C413.023 77.192 411.903 78.326 411.035 79.838C410.167 81.322 409.733 83.156 409.733 85.34ZM416.411 85.34C416.411 84.332 416.621 83.464 417.041 82.736C417.461 81.98 418.021 81.406 418.721 81.014C419.421 80.594 420.191 80.384 421.031 80.384C421.535 80.384 422.053 80.496 422.585 80.72C423.145 80.944 423.635 81.28 424.055 81.728C424.503 82.148 424.853 82.666 425.105 83.282C425.385 83.87 425.525 84.542 425.525 85.298C425.525 86.11 425.385 86.824 425.105 87.44C424.853 88.028 424.503 88.546 424.055 88.994C423.635 89.414 423.159 89.736 422.627 89.96C422.095 90.184 421.577 90.296 421.073 90.296C420.205 90.296 419.421 90.1 418.721 89.708C418.021 89.288 417.461 88.714 417.041 87.986C416.621 87.23 416.411 86.348 416.411 85.34ZM446.659 95.42C449.123 95.42 451.209 94.944 452.917 93.992C454.625 93.04 455.997 91.612 457.033 89.708L451.321 88.322C450.873 89.162 450.243 89.792 449.431 90.212C448.619 90.632 447.653 90.842 446.533 90.842C445.581 90.842 444.755 90.618 444.055 90.17C443.383 89.722 442.879 89.092 442.543 88.28C442.207 87.44 442.053 86.432 442.081 85.256C442.081 84.276 442.165 83.436 442.333 82.736C442.529 82.008 442.809 81.406 443.173 80.93C443.537 80.454 443.985 80.104 444.517 79.88C445.077 79.628 445.721 79.502 446.449 79.502C447.177 79.502 447.821 79.67 448.381 80.006C448.969 80.342 449.403 80.818 449.683 81.434C449.963 82.022 450.103 82.75 450.103 83.618C450.103 83.814 450.061 84.052 449.977 84.332C449.893 84.584 449.781 84.836 449.641 85.088L451.153 83.156H439.225V86.684H456.907C456.935 86.46 456.949 86.208 456.949 85.928C456.949 85.648 456.949 85.354 456.949 85.046C456.949 82.974 456.543 81.21 455.731 79.754C454.919 78.298 453.743 77.192 452.203 76.436C450.663 75.652 448.773 75.26 446.533 75.26C444.853 75.26 443.341 75.498 441.997 75.974C440.653 76.422 439.505 77.08 438.553 77.948C437.601 78.816 436.873 79.88 436.369 81.14C435.893 82.372 435.655 83.772 435.655 85.34C435.655 87.384 436.103 89.162 436.999 90.674C437.895 92.186 439.155 93.362 440.779 94.202C442.431 95.014 444.391 95.42 446.659 95.42ZM480.073 75.68H473.521L467.347 91.136L470.623 91.178L464.407 75.68H457.393L465.751 93.446L461.089 104.24H467.473L480.073 75.68Z" fill="#D9E0F9"/>
<path d="M195.838 142.76H204.718L204.43 139.664H196.102L195.838 142.76ZM200.254 135.392L202.606 140.792L202.438 141.872L204.43 146H209.062L200.254 128.144L191.398 146H195.982L198.046 141.728L197.878 140.792L200.254 135.392ZM217.639 139.28V146H221.431V138.896C221.431 138.016 221.287 137.264 220.999 136.64C220.727 136.016 220.295 135.536 219.703 135.2C219.127 134.864 218.383 134.696 217.471 134.696C216.671 134.696 215.991 134.864 215.431 135.2C214.871 135.536 214.431 136.008 214.111 136.616V134.96H210.439V146H214.111V139.28C214.111 138.864 214.191 138.504 214.351 138.2C214.511 137.88 214.735 137.648 215.023 137.504C215.311 137.344 215.647 137.264 216.031 137.264C216.431 137.264 216.743 137.344 216.967 137.504C217.207 137.648 217.375 137.872 217.471 138.176C217.583 138.48 217.639 138.848 217.639 139.28ZM232.644 127.28V146H236.268V127.28H232.644ZM223.62 140.48C223.62 141.712 223.868 142.76 224.364 143.624C224.86 144.488 225.5 145.144 226.284 145.592C227.084 146.024 227.94 146.24 228.852 146.24C229.54 146.24 230.172 146.112 230.748 145.856C231.34 145.584 231.852 145.2 232.284 144.704C232.716 144.208 233.052 143.608 233.292 142.904C233.532 142.184 233.652 141.376 233.652 140.48C233.652 139.584 233.532 138.784 233.292 138.08C233.052 137.36 232.716 136.752 232.284 136.256C231.852 135.76 231.34 135.384 230.748 135.128C230.172 134.856 229.54 134.72 228.852 134.72C227.94 134.72 227.084 134.944 226.284 135.392C225.5 135.824 224.86 136.472 224.364 137.336C223.868 138.184 223.62 139.232 223.62 140.48ZM227.436 140.48C227.436 139.904 227.556 139.408 227.796 138.992C228.036 138.56 228.356 138.232 228.756 138.008C229.156 137.768 229.596 137.648 230.076 137.648C230.364 137.648 230.66 137.712 230.964 137.84C231.284 137.968 231.564 138.16 231.804 138.416C232.06 138.656 232.26 138.952 232.404 139.304C232.564 139.64 232.644 140.024 232.644 140.456C232.644 140.92 232.564 141.328 232.404 141.68C232.26 142.016 232.06 142.312 231.804 142.568C231.564 142.808 231.292 142.992 230.988 143.12C230.684 143.248 230.388 143.312 230.1 143.312C229.604 143.312 229.156 143.2 228.756 142.976C228.356 142.736 228.036 142.408 227.796 141.992C227.556 141.56 227.436 141.056 227.436 140.48ZM242.656 134.96H239.056V146H242.656V134.96ZM245.848 138.728L247.432 135.584C247.256 135.344 246.976 135.136 246.592 134.96C246.224 134.784 245.84 134.696 245.44 134.696C244.816 134.696 244.224 134.896 243.664 135.296C243.12 135.696 242.672 136.24 242.32 136.928C241.968 137.616 241.792 138.4 241.792 139.28L242.656 140.552C242.656 140.024 242.728 139.576 242.872 139.208C243.032 138.84 243.248 138.568 243.52 138.392C243.792 138.2 244.096 138.104 244.432 138.104C244.752 138.104 245.016 138.16 245.224 138.272C245.448 138.384 245.656 138.536 245.848 138.728ZM247.971 140.48C247.971 141.632 248.243 142.64 248.787 143.504C249.347 144.368 250.099 145.04 251.043 145.52C252.003 146 253.083 146.24 254.283 146.24C255.499 146.24 256.579 146 257.523 145.52C258.467 145.04 259.211 144.368 259.755 143.504C260.315 142.64 260.595 141.632 260.595 140.48C260.595 139.312 260.315 138.304 259.755 137.456C259.211 136.592 258.467 135.92 257.523 135.44C256.579 134.944 255.507 134.696 254.307 134.696C253.107 134.696 252.027 134.936 251.067 135.416C250.107 135.896 249.347 136.568 248.787 137.432C248.243 138.296 247.971 139.312 247.971 140.48ZM251.715 140.48C251.715 139.904 251.827 139.416 252.051 139.016C252.291 138.6 252.603 138.28 252.987 138.056C253.387 137.816 253.827 137.696 254.307 137.696C254.771 137.696 255.195 137.816 255.579 138.056C255.963 138.28 256.267 138.6 256.491 139.016C256.715 139.432 256.827 139.912 256.827 140.456C256.827 141.032 256.715 141.528 256.491 141.944C256.267 142.36 255.963 142.68 255.579 142.904C255.195 143.128 254.763 143.24 254.283 143.24C253.819 143.24 253.387 143.128 252.987 142.904C252.603 142.68 252.291 142.36 252.051 141.944C251.827 141.512 251.715 141.024 251.715 140.48ZM262.536 130.832C262.536 131.408 262.736 131.872 263.136 132.224C263.536 132.576 264.04 132.752 264.648 132.752C265.24 132.752 265.736 132.576 266.136 132.224C266.552 131.872 266.76 131.408 266.76 130.832C266.76 130.256 266.552 129.784 266.136 129.416C265.736 129.048 265.24 128.864 264.648 128.864C264.04 128.864 263.536 129.048 263.136 129.416C262.736 129.784 262.536 130.256 262.536 130.832ZM262.872 134.96V146H266.4V134.96H262.872ZM277.784 127.28V146H281.408V127.28H277.784ZM268.76 140.48C268.76 141.712 269.008 142.76 269.504 143.624C270 144.488 270.64 145.144 271.424 145.592C272.224 146.024 273.08 146.24 273.992 146.24C274.68 146.24 275.312 146.112 275.888 145.856C276.48 145.584 276.992 145.2 277.424 144.704C277.856 144.208 278.192 143.608 278.432 142.904C278.672 142.184 278.792 141.376 278.792 140.48C278.792 139.584 278.672 138.784 278.432 138.08C278.192 137.36 277.856 136.752 277.424 136.256C276.992 135.76 276.48 135.384 275.888 135.128C275.312 134.856 274.68 134.72 273.992 134.72C273.08 134.72 272.224 134.944 271.424 135.392C270.64 135.824 270 136.472 269.504 137.336C269.008 138.184 268.76 139.232 268.76 140.48ZM272.576 140.48C272.576 139.904 272.696 139.408 272.936 138.992C273.176 138.56 273.496 138.232 273.896 138.008C274.296 137.768 274.736 137.648 275.216 137.648C275.504 137.648 275.8 137.712 276.104 137.84C276.424 137.968 276.704 138.16 276.944 138.416C277.2 138.656 277.4 138.952 277.544 139.304C277.704 139.64 277.784 140.024 277.784 140.456C277.784 140.92 277.704 141.328 277.544 141.68C277.4 142.016 277.2 142.312 276.944 142.568C276.704 142.808 276.432 142.992 276.128 143.12C275.824 143.248 275.528 143.312 275.24 143.312C274.744 143.312 274.296 143.2 273.896 142.976C273.496 142.736 273.176 142.408 272.936 141.992C272.696 141.56 272.576 141.056 272.576 140.48ZM294.44 142.76H303.32L303.032 139.664H294.704L294.44 142.76ZM298.856 135.392L301.208 140.792L301.04 141.872L303.032 146H307.664L298.856 128.144L290 146H294.584L296.648 141.728L296.48 140.792L298.856 135.392ZM312.664 151.28V134.96H309.04V151.28H312.664ZM321.688 140.504C321.688 139.192 321.432 138.096 320.92 137.216C320.424 136.336 319.776 135.68 318.976 135.248C318.176 134.8 317.328 134.576 316.432 134.576C315.712 134.576 315.064 134.72 314.488 135.008C313.912 135.28 313.424 135.68 313.024 136.208C312.624 136.72 312.32 137.336 312.112 138.056C311.904 138.776 311.8 139.584 311.8 140.48C311.8 141.376 311.904 142.184 312.112 142.904C312.32 143.624 312.624 144.248 313.024 144.776C313.424 145.288 313.912 145.68 314.488 145.952C315.064 146.224 315.712 146.36 316.432 146.36C317.328 146.36 318.176 146.144 318.976 145.712C319.776 145.264 320.424 144.608 320.92 143.744C321.432 142.88 321.688 141.8 321.688 140.504ZM317.848 140.48C317.848 141.056 317.728 141.544 317.488 141.944C317.248 142.344 316.928 142.648 316.528 142.856C316.144 143.064 315.712 143.168 315.232 143.168C314.928 143.168 314.624 143.112 314.32 143C314.016 142.888 313.736 142.72 313.48 142.496C313.24 142.272 313.04 141.992 312.88 141.656C312.736 141.32 312.664 140.928 312.664 140.48C312.664 140.032 312.736 139.64 312.88 139.304C313.04 138.968 313.24 138.688 313.48 138.464C313.736 138.224 314.016 138.056 314.32 137.96C314.624 137.848 314.928 137.792 315.232 137.792C315.712 137.792 316.144 137.896 316.528 138.104C316.928 138.312 317.248 138.616 317.488 139.016C317.728 139.416 317.848 139.904 317.848 140.48ZM327.477 151.28V134.96H323.853V151.28H327.477ZM336.501 140.504C336.501 139.192 336.245 138.096 335.733 137.216C335.237 136.336 334.589 135.68 333.789 135.248C332.989 134.8 332.141 134.576 331.245 134.576C330.525 134.576 329.877 134.72 329.301 135.008C328.725 135.28 328.237 135.68 327.837 136.208C327.437 136.72 327.133 137.336 326.925 138.056C326.717 138.776 326.613 139.584 326.613 140.48C326.613 141.376 326.717 142.184 326.925 142.904C327.133 143.624 327.437 144.248 327.837 144.776C328.237 145.288 328.725 145.68 329.301 145.952C329.877 146.224 330.525 146.36 331.245 146.36C332.141 146.36 332.989 146.144 333.789 145.712C334.589 145.264 335.237 144.608 335.733 143.744C336.245 142.88 336.501 141.8 336.501 140.504ZM332.661 140.48C332.661 141.056 332.541 141.544 332.301 141.944C332.061 142.344 331.741 142.648 331.341 142.856C330.957 143.064 330.525 143.168 330.045 143.168C329.741 143.168 329.437 143.112 329.133 143C328.829 142.888 328.549 142.72 328.293 142.496C328.053 142.272 327.853 141.992 327.693 141.656C327.549 141.32 327.477 140.928 327.477 140.48C327.477 140.032 327.549 139.64 327.693 139.304C327.853 138.968 328.053 138.688 328.293 138.464C328.549 138.224 328.829 138.056 329.133 137.96C329.437 137.848 329.741 137.792 330.045 137.792C330.525 137.792 330.957 137.896 331.341 138.104C331.741 138.312 332.061 138.616 332.301 139.016C332.541 139.416 332.661 139.904 332.661 140.48ZM346.269 129.2V146H350.469V129.2H346.269ZM352.245 146C353.621 146 354.861 145.808 355.965 145.424C357.069 145.024 358.013 144.464 358.797 143.744C359.597 143.008 360.205 142.128 360.621 141.104C361.037 140.064 361.245 138.896 361.245 137.6C361.245 136.304 361.037 135.144 360.621 134.12C360.205 133.08 359.597 132.2 358.797 131.48C358.013 130.744 357.069 130.184 355.965 129.8C354.861 129.4 353.621 129.2 352.245 129.2H348.933V132.824H352.125C352.765 132.824 353.381 132.904 353.973 133.064C354.565 133.224 355.085 133.488 355.533 133.856C355.997 134.224 356.365 134.72 356.637 135.344C356.909 135.952 357.045 136.704 357.045 137.6C357.045 138.496 356.909 139.256 356.637 139.88C356.365 140.488 355.997 140.976 355.533 141.344C355.085 141.712 354.565 141.976 353.973 142.136C353.381 142.296 352.765 142.376 352.125 142.376H348.933V146H352.245ZM369.126 146.24C370.534 146.24 371.726 145.968 372.702 145.424C373.678 144.88 374.462 144.064 375.054 142.976L371.79 142.184C371.534 142.664 371.174 143.024 370.71 143.264C370.246 143.504 369.694 143.624 369.054 143.624C368.51 143.624 368.038 143.496 367.638 143.24C367.254 142.984 366.966 142.624 366.774 142.16C366.582 141.68 366.494 141.104 366.51 140.432C366.51 139.872 366.558 139.392 366.654 138.992C366.766 138.576 366.926 138.232 367.134 137.96C367.342 137.688 367.598 137.488 367.902 137.36C368.222 137.216 368.59 137.144 369.006 137.144C369.422 137.144 369.79 137.24 370.11 137.432C370.446 137.624 370.694 137.896 370.854 138.248C371.014 138.584 371.094 139 371.094 139.496C371.094 139.608 371.07 139.744 371.022 139.904C370.974 140.048 370.91 140.192 370.83 140.336L371.694 139.232H364.878V141.248H374.982C374.998 141.12 375.006 140.976 375.006 140.816C375.006 140.656 375.006 140.488 375.006 140.312C375.006 139.128 374.774 138.12 374.31 137.288C373.846 136.456 373.174 135.824 372.294 135.392C371.414 134.944 370.334 134.72 369.054 134.72C368.094 134.72 367.23 134.856 366.462 135.128C365.694 135.384 365.038 135.76 364.494 136.256C363.95 136.752 363.534 137.36 363.246 138.08C362.974 138.784 362.838 139.584 362.838 140.48C362.838 141.648 363.094 142.664 363.606 143.528C364.118 144.392 364.838 145.064 365.766 145.544C366.71 146.008 367.83 146.24 369.126 146.24ZM375.405 134.96L381.813 147.296L388.221 134.96H384.333L381.813 141.08L379.293 134.96H375.405ZM394.837 146.24C396.245 146.24 397.437 145.968 398.413 145.424C399.389 144.88 400.173 144.064 400.765 142.976L397.501 142.184C397.245 142.664 396.885 143.024 396.421 143.264C395.957 143.504 395.405 143.624 394.765 143.624C394.221 143.624 393.749 143.496 393.349 143.24C392.965 142.984 392.677 142.624 392.485 142.16C392.293 141.68 392.205 141.104 392.221 140.432C392.221 139.872 392.269 139.392 392.365 138.992C392.477 138.576 392.637 138.232 392.845 137.96C393.053 137.688 393.309 137.488 393.613 137.36C393.933 137.216 394.301 137.144 394.717 137.144C395.133 137.144 395.501 137.24 395.821 137.432C396.157 137.624 396.405 137.896 396.565 138.248C396.725 138.584 396.805 139 396.805 139.496C396.805 139.608 396.781 139.744 396.733 139.904C396.685 140.048 396.621 140.192 396.541 140.336L397.405 139.232H390.589V141.248H400.693C400.709 141.12 400.717 140.976 400.717 140.816C400.717 140.656 400.717 140.488 400.717 140.312C400.717 139.128 400.485 138.12 400.021 137.288C399.557 136.456 398.885 135.824 398.005 135.392C397.125 134.944 396.045 134.72 394.765 134.72C393.805 134.72 392.941 134.856 392.173 135.128C391.405 135.384 390.749 135.76 390.205 136.256C389.661 136.752 389.245 137.36 388.957 138.08C388.685 138.784 388.549 139.584 388.549 140.48C388.549 141.648 388.805 142.664 389.317 143.528C389.829 144.392 390.549 145.064 391.477 145.544C392.421 146.008 393.541 146.24 394.837 146.24ZM402.931 127.28V146H406.603V127.28H402.931ZM408.776 140.48C408.776 141.632 409.048 142.64 409.592 143.504C410.152 144.368 410.904 145.04 411.848 145.52C412.808 146 413.888 146.24 415.088 146.24C416.304 146.24 417.384 146 418.328 145.52C419.272 145.04 420.016 144.368 420.56 143.504C421.12 142.64 421.4 141.632 421.4 140.48C421.4 139.312 421.12 138.304 420.56 137.456C420.016 136.592 419.272 135.92 418.328 135.44C417.384 134.944 416.312 134.696 415.112 134.696C413.912 134.696 412.832 134.936 411.872 135.416C410.912 135.896 410.152 136.568 409.592 137.432C409.048 138.296 408.776 139.312 408.776 140.48ZM412.52 140.48C412.52 139.904 412.632 139.416 412.856 139.016C413.096 138.6 413.408 138.28 413.792 138.056C414.192 137.816 414.632 137.696 415.112 137.696C415.576 137.696 416 137.816 416.384 138.056C416.768 138.28 417.072 138.6 417.296 139.016C417.52 139.432 417.632 139.912 417.632 140.456C417.632 141.032 417.52 141.528 417.296 141.944C417.072 142.36 416.768 142.68 416.384 142.904C416 143.128 415.568 143.24 415.088 143.24C414.624 143.24 414.192 143.128 413.792 142.904C413.408 142.68 413.096 142.36 412.856 141.944C412.632 141.512 412.52 141.024 412.52 140.48ZM427.157 151.28V134.96H423.533V151.28H427.157ZM436.181 140.504C436.181 139.192 435.925 138.096 435.413 137.216C434.917 136.336 434.269 135.68 433.469 135.248C432.669 134.8 431.821 134.576 430.925 134.576C430.205 134.576 429.557 134.72 428.981 135.008C428.405 135.28 427.917 135.68 427.517 136.208C427.117 136.72 426.813 137.336 426.605 138.056C426.397 138.776 426.293 139.584 426.293 140.48C426.293 141.376 426.397 142.184 426.605 142.904C426.813 143.624 427.117 144.248 427.517 144.776C427.917 145.288 428.405 145.68 428.981 145.952C429.557 146.224 430.205 146.36 430.925 146.36C431.821 146.36 432.669 146.144 433.469 145.712C434.269 145.264 434.917 144.608 435.413 143.744C435.925 142.88 436.181 141.8 436.181 140.504ZM432.341 140.48C432.341 141.056 432.221 141.544 431.981 141.944C431.741 142.344 431.421 142.648 431.021 142.856C430.637 143.064 430.205 143.168 429.725 143.168C429.421 143.168 429.117 143.112 428.813 143C428.509 142.888 428.229 142.72 427.973 142.496C427.733 142.272 427.533 141.992 427.373 141.656C427.229 141.32 427.157 140.928 427.157 140.48C427.157 140.032 427.229 139.64 427.373 139.304C427.533 138.968 427.733 138.688 427.973 138.464C428.229 138.224 428.509 138.056 428.813 137.96C429.117 137.848 429.421 137.792 429.725 137.792C430.205 137.792 430.637 137.896 431.021 138.104C431.421 138.312 431.741 138.616 431.981 139.016C432.221 139.416 432.341 139.904 432.341 140.48ZM444.009 146.24C445.417 146.24 446.609 145.968 447.585 145.424C448.561 144.88 449.345 144.064 449.937 142.976L446.673 142.184C446.417 142.664 446.057 143.024 445.593 143.264C445.129 143.504 444.577 143.624 443.937 143.624C443.393 143.624 442.921 143.496 442.521 143.24C442.137 142.984 441.849 142.624 441.657 142.16C441.465 141.68 441.377 141.104 441.393 140.432C441.393 139.872 441.441 139.392 441.537 138.992C441.649 138.576 441.809 138.232 442.017 137.96C442.225 137.688 442.481 137.488 442.785 137.36C443.105 137.216 443.473 137.144 443.889 137.144C444.305 137.144 444.673 137.24 444.993 137.432C445.329 137.624 445.577 137.896 445.737 138.248C445.897 138.584 445.977 139 445.977 139.496C445.977 139.608 445.953 139.744 445.905 139.904C445.857 140.048 445.793 140.192 445.713 140.336L446.577 139.232H439.761V141.248H449.865C449.881 141.12 449.889 140.976 449.889 140.816C449.889 140.656 449.889 140.488 449.889 140.312C449.889 139.128 449.657 138.12 449.193 137.288C448.729 136.456 448.057 135.824 447.177 135.392C446.297 134.944 445.217 134.72 443.937 134.72C442.977 134.72 442.113 134.856 441.345 135.128C440.577 135.384 439.921 135.76 439.377 136.256C438.833 136.752 438.417 137.36 438.129 138.08C437.857 138.784 437.721 139.584 437.721 140.48C437.721 141.648 437.977 142.664 438.489 143.528C439.001 144.392 439.721 145.064 440.649 145.544C441.593 146.008 442.713 146.24 444.009 146.24ZM455.703 134.96H452.103V146H455.703V134.96ZM458.895 138.728L460.479 135.584C460.303 135.344 460.023 135.136 459.639 134.96C459.271 134.784 458.887 134.696 458.487 134.696C457.863 134.696 457.271 134.896 456.711 135.296C456.167 135.696 455.719 136.24 455.367 136.928C455.015 137.616 454.839 138.4 454.839 139.28L455.703 140.552C455.703 140.024 455.775 139.576 455.919 139.208C456.079 138.84 456.295 138.568 456.567 138.392C456.839 138.2 457.143 138.104 457.479 138.104C457.799 138.104 458.063 138.16 458.271 138.272C458.495 138.384 458.703 138.536 458.895 138.728Z" fill="#1CE39D"/>
</svg>
