<svg width="256" height="256" viewBox="0 0 256 256" fill="none" xmlns="http://www.w3.org/2000/svg">
<path fill-rule="evenodd" clip-rule="evenodd" d="M113.398 200.068C113.398 200.109 113.398 200.149 113.398 200.19V218.389C113.398 239.161 96.559 256 75.7868 256C55.0146 256 38.1754 239.161 38.1754 218.389V118.9H123.104C128.465 118.9 132.811 114.555 132.811 109.194C132.811 103.834 128.465 99.4881 123.104 99.4881H38.1754V89.7821H142.517C147.877 89.7821 152.223 85.4365 152.223 80.076C152.223 74.7154 147.877 70.3698 142.517 70.3698H40.2796C41.0086 67.0623 41.92 63.8232 43.0026 60.6636H75.7867C81.1472 60.6636 85.4928 56.318 85.4928 50.9575C85.4928 45.5969 81.1472 41.2513 75.7867 41.2513H52.4092C54.5976 37.8517 57.0091 34.6093 59.6232 31.5449H117.038C122.399 31.5449 126.744 27.1993 126.744 21.8388C126.744 16.4782 122.399 12.1326 117.038 12.1326H82.8573C96.1102 4.41846 111.518 0 127.957 0C177.543 0 217.739 40.1968 217.739 89.782C217.739 137.976 179.767 177.301 132.109 179.47C121.615 180.436 113.398 189.262 113.398 200.008C113.398 200.028 113.398 200.048 113.398 200.068ZM104.905 41.2513C99.5449 41.2513 95.1993 45.5969 95.1993 50.9575C95.1993 56.318 99.5449 60.6636 104.905 60.6636H153.436C158.797 60.6636 163.142 56.318 163.142 50.9575C163.142 45.5969 158.797 41.2513 153.436 41.2513H104.905ZM171.635 70.3698C166.275 70.3698 161.929 74.7154 161.929 80.076C161.929 85.4365 166.275 89.7821 171.635 89.7821H183.768C189.128 89.7821 193.474 85.4365 193.474 80.076C193.474 74.7154 189.128 70.3698 183.768 70.3698H171.635Z" fill="#1CE39D"/>
</svg>
